<?xml version="1.0" encoding="UTF-8"?>
<svg width="1059px" height="1411px" viewBox="0 0 1059 1411" version="1.1" xmlns="http://www.w3.org/2000/svg" xmlns:xlink="http://www.w3.org/1999/xlink">
    <title>Group</title>
    <g id="Page-1" stroke="none" stroke-width="1" fill="none" fill-rule="evenodd">
        <g id="vecteezy_lock-and-key-icon-set_4693391" transform="translate(-458, -545)" fill="#FFFFFF">
            <g id="Group" transform="translate(458.5117, 545.2695)">
                <path d="M112.074219,551.621094 L946.058593,551.621094 C1007.69922,551.621094 1058.12891,602.058594 1058.12891,663.699219 L1058.12891,1297.71094 C1058.12891,1359.35156 1007.69922,1409.78516 946.058593,1409.78516 L112.074219,1409.78516 C50.433593,1409.78516 0,1359.35156 0,1297.71094 L0,663.699219 C0,602.058594 50.433593,551.621094 112.074219,551.621094 Z M597.417969,973.796875 L597.417969,1116.30859 C597.417969,1153.89844 566.660156,1184.65234 529.070312,1184.65234 L529.0625,1184.65234 C491.46875,1184.65234 460.71875,1153.89844 460.71875,1116.30859 L460.71875,973.804688 C435.121093,953.589844 418.6875,922.28125 418.6875,887.140625 C418.6875,826.191407 468.109375,776.769531 529.0625,776.769531 C590.019531,776.769531 639.4375,826.191407 639.4375,887.140625 C639.4375,922.28125 623,953.582031 597.417969,973.796875" id="Shape"></path>
                <path d="M529.0625,0 C751.027343,0 932.628906,181.589844 932.628906,403.558594 L932.628906,689.96875 C932.628906,718.199219 929.679687,745.769531 924.097656,772.410157 L768.816406,772.410157 C777.777343,746.53125 782.667969,718.789063 782.667969,689.96875 L782.667969,403.558594 C782.667969,264.070313 668.546875,149.960938 529.0625,149.960938 C389.570312,149.960938 275.457031,264.070313 275.457031,403.558594 L275.457031,689.96875 C275.457031,718.789063 280.339843,746.53125 289.304687,772.410157 L134.027343,772.410157 C128.449219,745.769531 125.496093,718.199219 125.496093,689.96875 L125.496093,403.558594 C125.496093,181.589844 307.097656,0 529.0625,0" id="Path"></path>
            </g>
        </g>
    </g>
</svg>