<?xml version="1.0" encoding="UTF-8"?>
<svg width="433px" height="433px" viewBox="0 0 433 433" version="1.1" xmlns="http://www.w3.org/2000/svg" xmlns:xlink="http://www.w3.org/1999/xlink">
    <!-- Generator: Sketch 55.2 (78181) - https://sketchapp.com -->
    <title>Group 2</title>
    <desc>Created with Sketch.</desc>
    <g id="Page-1" stroke="none" stroke-width="1" fill="none" fill-rule="evenodd">
        <g id="Artboard">
            <g id="Group-2">
                <circle id="Oval" fill="#01496D" cx="216.5" cy="216.5" r="216.5"></circle>
                <g id="logo" transform="translate(106.000000, 70.000000)" fill="#FFFFFF">
                    <g id="Leaves">
                        <g id="Group" transform="translate(80.703693, 94.185682) scale(-1, 1) translate(-80.703693, -94.185682) translate(61.703693, 69.185682)">
                            <path d="M8.06007926,3.84163572 C12.4577754,-0.128636187 17.6941865,-0.786465246 23.7693125,1.86814854 C27.3698878,3.44147173 30.8664065,5.91997107 33.5751346,10.2755847 C39.9003592,20.4464971 39.4386684,33.5839351 32.1900622,49.6878988 C31.4501111,40.3423447 28.3883669,30.8777344 23.0048296,21.2940679 C17.6212922,11.7104014 12.6397088,5.89292403 8.06007926,3.84163572 Z" id="Path-4"></path>
                            <path d="M4.62804156,7.98208921 C9.49029925,10.4014997 14.014154,15.3532348 18.1996056,22.8372944 C22.3850573,30.3213539 25.4819606,37.883317 27.4903156,45.5231836 C24.4266091,42.2491891 21.3297057,39.6377326 18.1996056,37.6888142 C13.5044555,34.7654366 10.4737614,33.261678 7.43250665,31.1667247 C3.17034483,28.2307556 -0.877314638,23.7168567 0.619605378,15.8459412 C1.16359292,12.9856147 2.49973832,10.3643307 4.62804156,7.98208921 Z" id="Path-8"></path>
                        </g>
                        <g id="Group" transform="translate(60.621370, 38.837136) scale(-1, 1) translate(-60.621370, -38.837136) translate(41.621370, 13.837136)">
                            <path d="M8.06007926,3.84163572 C12.4577754,-0.128636187 17.6941865,-0.786465246 23.7693125,1.86814854 C27.3698878,3.44147173 30.8664065,5.91997107 33.5751346,10.2755847 C39.9003592,20.4464971 39.4386684,33.5839351 32.1900622,49.6878988 C31.4501111,40.3423447 28.3883669,30.8777344 23.0048296,21.2940679 C17.6212922,11.7104014 12.6397088,5.89292403 8.06007926,3.84163572 Z" id="Path-4"></path>
                            <path d="M4.62804156,7.98208921 C9.49029925,10.4014997 14.014154,15.3532348 18.1996056,22.8372944 C22.3850573,30.3213539 25.4819606,37.883317 27.4903156,45.5231836 C24.4266091,42.2491891 21.3297057,39.6377326 18.1996056,37.6888142 C13.5044555,34.7654366 10.4737614,33.261678 7.43250665,31.1667247 C3.17034483,28.2307556 -0.877314638,23.7168567 0.619605378,15.8459412 C1.16359292,12.9856147 2.49973832,10.3643307 4.62804156,7.98208921 Z" id="Path-8"></path>
                        </g>
                        <g id="Group" transform="translate(113.965041, 25.000000) scale(-1, 1) translate(-113.965041, -25.000000) translate(94.965041, 0.000000)">
                            <path d="M8.06007926,3.84163572 C12.4577754,-0.128636187 17.6941865,-0.786465246 23.7693125,1.86814854 C27.3698878,3.44147173 30.8664065,5.91997107 33.5751346,10.2755847 C39.9003592,20.4464971 39.4386684,33.5839351 32.1900622,49.6878988 C31.4501111,40.3423447 28.3883669,30.8777344 23.0048296,21.2940679 C17.6212922,11.7104014 12.6397088,5.89292403 8.06007926,3.84163572 Z" id="Path-4"></path>
                            <path d="M4.62804156,7.98208921 C9.49029925,10.4014997 14.014154,15.3532348 18.1996056,22.8372944 C22.3850573,30.3213539 25.4819606,37.883317 27.4903156,45.5231836 C24.4266091,42.2491891 21.3297057,39.6377326 18.1996056,37.6888142 C13.5044555,34.7654366 10.4737614,33.261678 7.43250665,31.1667247 C3.17034483,28.2307556 -0.877314638,23.7168567 0.619605378,15.8459412 C1.16359292,12.9856147 2.49973832,10.3643307 4.62804156,7.98208921 Z" id="Path-8"></path>
                        </g>
                        <g id="Group" transform="translate(149.909502, 22.642587)">
                            <path d="M8.06007926,3.84163572 C12.4577754,-0.128636187 17.6941865,-0.786465246 23.7693125,1.86814854 C27.3698878,3.44147173 30.8664065,5.91997107 33.5751346,10.2755847 C39.9003592,20.4464971 39.4386684,33.5839351 32.1900622,49.6878988 C31.4501111,40.3423447 28.3883669,30.8777344 23.0048296,21.2940679 C17.6212922,11.7104014 12.6397088,5.89292403 8.06007926,3.84163572 Z" id="Path-4"></path>
                            <path d="M4.62804156,7.98208921 C9.49029925,10.4014997 14.014154,15.3532348 18.1996056,22.8372944 C22.3850573,30.3213539 25.4819606,37.883317 27.4903156,45.5231836 C24.4266091,42.2491891 21.3297057,39.6377326 18.1996056,37.6888142 C13.5044555,34.7654366 10.4737614,33.261678 7.43250665,31.1667247 C3.17034483,28.2307556 -0.877314638,23.7168567 0.619605378,15.8459412 C1.16359292,12.9856147 2.49973832,10.3643307 4.62804156,7.98208921 Z" id="Path-8"></path>
                        </g>
                        <g id="Group" transform="translate(118.530871, 61.009192)">
                            <path d="M8.06007926,3.84163572 C12.4577754,-0.128636187 17.6941865,-0.786465246 23.7693125,1.86814854 C27.3698878,3.44147173 30.8664065,5.91997107 33.5751346,10.2755847 C39.9003592,20.4464971 39.4386684,33.5839351 32.1900622,49.6878988 C31.4501111,40.3423447 28.3883669,30.8777344 23.0048296,21.2940679 C17.6212922,11.7104014 12.6397088,5.89292403 8.06007926,3.84163572 Z" id="Path-4"></path>
                            <path d="M4.62804156,7.98208921 C9.49029925,10.4014997 14.014154,15.3532348 18.1996056,22.8372944 C22.3850573,30.3213539 25.4819606,37.883317 27.4903156,45.5231836 C24.4266091,42.2491891 21.3297057,39.6377326 18.1996056,37.6888142 C13.5044555,34.7654366 10.4737614,33.261678 7.43250665,31.1667247 C3.17034483,28.2307556 -0.877314638,23.7168567 0.619605378,15.8459412 C1.16359292,12.9856147 2.49973832,10.3643307 4.62804156,7.98208921 Z" id="Path-8"></path>
                        </g>
                        <g id="Group" transform="translate(148.026784, 123.276306)">
                            <path d="M8.06007926,3.84163572 C12.4577754,-0.128636187 17.6941865,-0.786465246 23.7693125,1.86814854 C27.3698878,3.44147173 30.8664065,5.91997107 33.5751346,10.2755847 C39.9003592,20.4464971 39.4386684,33.5839351 32.1900622,49.6878988 C31.4501111,40.3423447 28.3883669,30.8777344 23.0048296,21.2940679 C17.6212922,11.7104014 12.6397088,5.89292403 8.06007926,3.84163572 Z" id="Path-4"></path>
                            <path d="M4.62804156,7.98208921 C9.49029925,10.4014997 14.014154,15.3532348 18.1996056,22.8372944 C22.3850573,30.3213539 25.4819606,37.883317 27.4903156,45.5231836 C24.4266091,42.2491891 21.3297057,39.6377326 18.1996056,37.6888142 C13.5044555,34.7654366 10.4737614,33.261678 7.43250665,31.1667247 C3.17034483,28.2307556 -0.877314638,23.7168567 0.619605378,15.8459412 C1.16359292,12.9856147 2.49973832,10.3643307 4.62804156,7.98208921 Z" id="Path-8"></path>
                        </g>
                        <g id="Group" transform="translate(183.170850, 82.393857)">
                            <path d="M8.06007926,3.84163572 C12.4577754,-0.128636187 17.6941865,-0.786465246 23.7693125,1.86814854 C27.3698878,3.44147173 30.8664065,5.91997107 33.5751346,10.2755847 C39.9003592,20.4464971 39.4386684,33.5839351 32.1900622,49.6878988 C31.4501111,40.3423447 28.3883669,30.8777344 23.0048296,21.2940679 C17.6212922,11.7104014 12.6397088,5.89292403 8.06007926,3.84163572 Z" id="Path-4"></path>
                            <path d="M4.62804156,7.98208921 C9.49029925,10.4014997 14.014154,15.3532348 18.1996056,22.8372944 C22.3850573,30.3213539 25.4819606,37.883317 27.4903156,45.5231836 C24.4266091,42.2491891 21.3297057,39.6377326 18.1996056,37.6888142 C13.5044555,34.7654366 10.4737614,33.261678 7.43250665,31.1667247 C3.17034483,28.2307556 -0.877314638,23.7168567 0.619605378,15.8459412 C1.16359292,12.9856147 2.49973832,10.3643307 4.62804156,7.98208921 Z" id="Path-8"></path>
                        </g>
                        <g id="Group" transform="translate(19.829150, 92.298800) scale(-1, 1) translate(-19.829150, -92.298800) translate(0.829150, 67.298800)">
                            <path d="M8.06007926,3.84163572 C12.4577754,-0.128636187 17.6941865,-0.786465246 23.7693125,1.86814854 C27.3698878,3.44147173 30.8664065,5.91997107 33.5751346,10.2755847 C39.9003592,20.4464971 39.4386684,33.5839351 32.1900622,49.6878988 C31.4501111,40.3423447 28.3883669,30.8777344 23.0048296,21.2940679 C17.6212922,11.7104014 12.6397088,5.89292403 8.06007926,3.84163572 Z" id="Path-4"></path>
                            <path d="M4.62804156,7.98208921 C9.49029925,10.4014997 14.014154,15.3532348 18.1996056,22.8372944 C22.3850573,30.3213539 25.4819606,37.883317 27.4903156,45.5231836 C24.4266091,42.2491891 21.3297057,39.6377326 18.1996056,37.6888142 C13.5044555,34.7654366 10.4737614,33.261678 7.43250665,31.1667247 C3.17034483,28.2307556 -0.877314638,23.7168567 0.619605378,15.8459412 C1.16359292,12.9856147 2.49973832,10.3643307 4.62804156,7.98208921 Z" id="Path-8"></path>
                        </g>
                    </g>
                    <path d="M33.8364312,166.42451 C33.8364312,143.87124 57.4532301,138.617247 70.3826712,133.887669 C77.3614914,131.334823 93.9394244,127.489691 120.11647,122.352273 L122.950486,122.644477 C102.65429,128.857431 89.6388095,133.618062 83.9040449,136.926369 C70.0866309,144.897447 68.2375319,153.712121 70.0488562,158.756932 C74.4573254,171.035181 93.0547981,177.394755 114.152472,183.011603 C136.194817,189.187128 172.407242,198.314174 185.63265,217.114223 C198.858057,235.914273 198.858057,258.926766 178.075274,274.180067 C174.87449,276.529248 163.310109,283.319803 148.160662,286.577015 C110.940505,294.579548 76.7232171,289.926205 65.6403871,286.577015 C55.3368022,283.861177 40.1647828,277.760818 43.6169657,274.180067 C62.1684533,254.937676 93.9805458,240.202353 76.9764506,210.298513 C67.0565642,192.853145 33.8364312,188.977781 33.8364312,166.42451 Z" id="Path"></path>
                </g>
            </g>
        </g>
    </g>
</svg>