<svg version="1.2" xmlns="http://www.w3.org/2000/svg" viewBox="0 0 3330 414" width="3330" height="414"><style>.a{fill:#fff}</style><path fill-rule="evenodd" class="a" d="m128.6 103.1q-9.3-8.4-22.2-2.8c-5.1 2.2-10 5.7-13.9 11.8q-13.4 21.6 2 55.7 1.6-19.8 13-40.1 11.4-20.3 21.1-24.6z"/><path fill-rule="evenodd" class="a" d="m133.5 108.9q-10.3 5.1-19.2 21-8.9 15.8-13.2 32 6.5-6.9 13.2-11.1c6.6-4.1 10.9-6.2 15.2-9.2 6-4.1 11.8-10.5 9.6-21.6q-1.1-6-5.6-11.1z"/><path fill-rule="evenodd" class="a" d="m100.2 25q-9.3-8.5-22.2-2.8c-5.1 2.2-10 5.7-13.9 11.8q-13.4 21.6 2 55.7 1.6-19.8 13-40.1 11.4-20.3 21.1-24.6z"/><path fill-rule="evenodd" class="a" d="m105.1 30.8q-10.3 5.1-19.2 21-8.9 15.8-13.2 32 6.5-7 13.2-11.1c6.6-4.1 10.9-6.2 15.2-9.2 6-4.1 11.8-10.5 9.6-21.6q-1.1-6.1-5.6-11.1z"/><path fill-rule="evenodd" class="a" d="m175.7 5.4q-9.4-8.4-22.3-2.8c-5 2.3-10 5.8-13.8 11.9q-13.4 21.5 1.9 55.6 1.6-19.8 13-40 11.5-20.3 21.2-24.7z"/><path fill-rule="evenodd" class="a" d="m180.5 11.3q-10.3 5.1-19.2 20.9-8.9 15.9-13.1 32 6.5-6.9 13.1-11c6.7-4.1 11-6.3 15.3-9.2 6-4.2 11.7-10.5 9.6-21.6q-1.2-6.1-5.7-11.1z"/><path fill-rule="evenodd" class="a" d="m222.4 37.4q9.4-8.4 22.3-2.8c5 2.2 10 5.7 13.8 11.9q13.4 21.5-1.9 55.6-1.6-19.8-13-40.1-11.4-20.3-21.2-24.6z"/><path fill-rule="evenodd" class="a" d="m217.6 43.2q10.3 5.1 19.2 21 8.9 15.8 13.1 32-6.5-6.9-13.1-11.1c-6.7-4.1-11-6.2-15.3-9.2-6-4.1-11.7-10.5-9.6-21.6q1.2-6 5.7-11.1z"/><path fill-rule="evenodd" class="a" d="m178.1 91.5q9.3-8.4 22.2-2.8c5.1 2.3 10 5.8 13.8 11.9q13.5 21.5-1.9 55.6-1.6-19.8-13-40-11.4-20.3-21.1-24.7z"/><path fill-rule="evenodd" class="a" d="m173.2 97.4q10.3 5.1 19.2 20.9 8.9 15.9 13.1 32.1-6.5-7-13.1-11.1c-6.6-4.1-10.9-6.3-15.2-9.2-6.1-4.2-11.8-10.5-9.7-21.6q1.2-6.1 5.7-11.1z"/><path fill-rule="evenodd" class="a" d="m219.8 179.4q9.3-8.4 22.2-2.8c5.1 2.2 10 5.7 13.9 11.9q13.4 21.5-2 55.6-1.6-19.8-13-40.1-11.4-20.3-21.1-24.6z"/><path fill-rule="evenodd" class="a" d="m214.9 185.3q10.3 5.1 19.2 20.9 8.9 15.9 13.2 32-6.5-6.9-13.2-11c-6.6-4.1-10.9-6.3-15.2-9.2-6-4.2-11.8-10.5-9.7-21.7q1.2-6 5.7-11z"/><path fill-rule="evenodd" class="a" d="m269.5 121.7q9.3-8.4 22.2-2.8c5.1 2.2 10 5.7 13.9 11.9q13.4 21.5-2 55.6-1.6-19.8-13-40.1-11.4-20.2-21.1-24.6z"/><path fill-rule="evenodd" class="a" d="m264.6 127.6q10.3 5.1 19.2 20.9 8.9 15.9 13.2 32-6.5-6.9-13.2-11c-6.6-4.1-10.9-6.3-15.2-9.2-6-4.2-11.8-10.5-9.6-21.6q1.1-6.1 5.6-11.1z"/><path fill-rule="evenodd" class="a" d="m42.5 100.4q-9.3-8.4-22.2-2.8c-5.1 2.2-10 5.7-13.9 11.9q-13.4 21.5 2 55.6 1.6-19.8 13-40.1 11.4-20.3 21.1-24.6z"/><path fill-rule="evenodd" class="a" d="m47.4 106.2q-10.3 5.2-19.2 21-8.9 15.9-13.2 32 6.5-6.9 13.2-11c6.6-4.2 10.9-6.3 15.2-9.2 6-4.2 11.8-10.5 9.6-21.7q-1.1-6-5.6-11.1z"/><path fill-rule="evenodd" class="a" d="m47 235.9c0-31.7 33.3-39 51.6-45.7q14.7-5.4 70.1-16.2l4 0.4q-42.9 13.1-55.1 20.1c-19.5 11.2-22.1 23.6-19.5 30.7 6.2 17.2 32.4 26.2 62.2 34 31.1 8.7 82.2 21.5 100.8 48 18.7 26.4 18.7 58.7-10.6 80.2-4.6 3.3-20.9 12.8-42.2 17.4-52.5 11.2-100.8 4.7-116.4 0-14.6-3.8-36-12.4-31.1-17.4 26.2-27.1 71-47.8 47.1-89.8-14-24.5-60.9-30-60.9-61.7z"/><path class="a" d="m698.3 304q-28.8 0-51.9-12.7-23.1-12.6-36.2-35-13.2-22.3-13.2-49.8 0-27.5 13.2-49.8 13.1-22.4 36.2-35 23.1-12.7 51.9-12.7 28.5 0 51.6 12.7 23 12.6 36.1 34.8 13 22.2 13 50 0 27.8-13 50-13.1 22.2-36.1 34.8-23.1 12.7-51.6 12.7zm0-24q20.9 0 37.7-9.5 16.7-9.5 26.3-26.2 9.7-16.7 9.7-37.3 0-20.6-9.7-37.3-9.6-16.7-26.3-26.2-16.8-9.5-37.7-9.5-21 0-38 9.5-17 9.5-26.6 26.2-9.7 16.7-9.7 37.3 0 20.6 9.7 37.3 9.6 16.7 26.6 26.2 17 9.5 38 9.5zm215-124q20.9 0 37.4 9.2 16.6 9.3 25.9 25.8 9.4 16.6 9.4 38.3 0 21.8-9.4 38.5-9.3 16.7-25.9 25.9-16.5 9.2-37.4 9.2-15.5 0-28.4-5.9-12.9-6-21.8-17.4v74.4h-26.1v-196.6h25v22.8q8.7-12 22-18.1 13.3-6.1 29.3-6.1zm-2.9 124q13.8 0 24.8-6.4 11-6.3 17.4-17.8 6.4-11.5 6.4-26.4 0-14.9-6.4-26.4-6.4-11.5-17.4-17.8-11-6.2-24.8-6.2-13.6 0-24.6 6.4-11 6.3-17.4 17.7-6.4 11.4-6.4 26.3 0 14.9 6.2 26.4 6.3 11.5 17.4 17.8 11.2 6.4 24.8 6.4zm176.7 0.2q25.8 0 41.6-17.4l14.1 16.8q-9.5 11.4-24 17.4-14.6 6-32.5 6-22.8 0-40.4-9.4-17.6-9.3-27.3-26.2-9.6-16.8-9.6-38 0-21 9.4-37.8 9.3-16.9 25.7-26.2 16.5-9.4 37.1-9.4 19.5 0 35.5 8.8 16 8.9 25.5 24.9 9.5 16 9.8 36.9l-114.2 22.3q5.4 15 18.3 23.1 12.9 8.2 31 8.2zm-6.2-102.2q-13.5 0-24.2 6.3-10.8 6.3-16.7 17.6-6 11.3-6 26.4v2.7l92-17.5q-3.5-15.8-15.7-25.7-12.3-9.8-29.4-9.8zm184.2-22q27.5 0 43.7 15.9 16.2 15.8 16.2 46.4v82.7h-26.1v-79.7q0-20.9-10.1-31.4-10.1-10.6-28.9-10.6-21.2 0-33.5 12.3-12.3 12.4-12.3 35.4v74h-26.1v-143.6h25.1v21.6q7.9-11.1 21.3-17 13.5-6 30.7-6zm259.3-44q37.1 0 58.3 17.6 21.3 17.7 21.3 48.6 0 31-21.3 48.6-21.2 17.7-58.3 17.7h-47.1v57.5h-27.3v-190zm-1.3 108q25.8 0 39.3-11 13.6-10.9 13.6-31.5 0-20.6-13.6-31.5-13.5-11-39.3-11h-46.1v85zm254.9-62.6v144h-25v-22.9q-8.7 12-22 18.3-13.3 6.2-29.3 6.2-20.9 0-37.4-9.2-16.6-9.3-26-26-9.3-16.7-9.3-38.4 0-21.8 9.3-38.3 9.4-16.6 26-25.9 16.5-9.2 37.4-9.2 15.5 0 28.5 5.8 13 5.9 21.7 17.3v-21.7zm-73.3 122.6q13.5 0 24.7-6.4 11.1-6.3 17.4-17.8 6.2-11.5 6.2-26.4 0-14.9-6.2-26.4-6.3-11.5-17.4-17.8-11.2-6.2-24.7-6.2-13.9 0-24.9 6.2-11 6.3-17.4 17.8-6.4 11.5-6.4 26.4 0 14.9 6.4 26.4 6.4 11.5 17.4 17.8 11 6.4 24.9 6.4zm199.3 13q-5.7 4.8-14.1 7.4-8.4 2.6-17.3 2.6-21.7 0-33.6-11.7-12-11.6-12-33.4v-131.9h26.1v31.5h41.2v21.4h-41.2v77.9q0 11.7 5.8 18 5.8 6.2 16.7 6.2 11.9 0 20.3-6.8zm108.1-136.6q27.5 0 43.7 15.9 16.2 16 16.2 46.7v83.1h-26.2v-80.1q0-20.9-10-31.5-10.1-10.7-28.9-10.7-21.2 0-33.5 12.4-12.3 12.4-12.3 35.5v74.4h-26.1v-202h26.1v78.1q8.2-10.3 21.4-16.1 13.2-5.7 29.6-5.7zm310.4-4.2q-27.8-15.7-59.4-18.7v167.6h-27v-167.6q-31.8 3-59.6 18.7l-9.5-21.4q36.5-21.7 82.2-21.7 46.3 0 82.8 21.7zm167.5 4.8v144.4h-24.8v-21.8q-7.9 11.2-20.8 17.3-13 6.1-28.2 6.1-28.9 0-45.6-15.9-16.6-15.9-16.6-47v-83.1h26.2v80.1q0 21 10.1 31.8 10.1 10.7 28.9 10.7 20.7 0 32.7-12.5 12-12.5 12-35.4v-74.7zm125 136q-5.7 4.9-14.1 7.5-8.4 2.5-17.4 2.5-21.7 0-33.6-11.6-11.9-11.7-11.9-33.4v-132h26v31.5h41.2v21.5h-41.2v77.9q0 11.7 5.8 17.9 5.8 6.3 16.7 6.3 11.9 0 20.3-6.8zm94.2 10q-21.5 0-38.7-9.5-17.1-9.5-26.8-26.2-9.7-16.7-9.7-37.9 0-21.2 9.7-37.9 9.7-16.7 26.8-26.1 17.2-9.4 38.7-9.4 21.5 0 38.5 9.4 17 9.4 26.7 26.1 9.6 16.7 9.6 37.9 0 21.2-9.6 37.9-9.7 16.7-26.7 26.2-17 9.5-38.5 9.5zm-0.5-23q13.8 0 24.8-6.4 11-6.3 17.3-17.8 6.2-11.5 6.2-26.4 0-14.9-6.2-26.4-6.3-11.5-17.3-17.8-11-6.2-24.8-6.2-13.9 0-24.9 6.2-11 6.3-17.4 17.8-6.4 11.5-6.4 26.4 0 14.9 6.4 26.4 6.4 11.5 17.4 17.8 11 6.4 24.9 6.4zm136.2-98.5q6.7-12.5 20-19 13.2-6.5 32.1-6.5v25.2q-2.1-0.3-5.9-0.3-21.1 0-33.1 12.7-12 12.6-12 35.9v71.5h-26v-143.6h24.9zm86.1-23.5h26v144h-26zm13.5-28q-7.5 0-12.5-4.9-5-4.9-5-12 0-7 5-12.1 5-5 12.5-5 7.6 0 12.5 4.8 5 4.7 5 11.8 0 7.3-5 12.4-4.9 5-12.5 5zm139.6 26q27.5 0 43.7 15.8 16.2 15.9 16.2 46.5v82.7h-26.1v-79.7q0-20.9-10.1-31.4-10.1-10.6-28.9-10.6-21.2 0-33.5 12.3-12.2 12.4-12.2 35.4v74h-26.2v-143.7h25.1v21.7q7.9-11.1 21.4-17 13.4-6 30.6-6zm245.9 1.4v124.6q0 37.8-18.7 55.9-18.8 18.1-56 18.1-20.3 0-38.8-5.6-18.5-5.6-29.9-15.9l12.5-20.1q10.1 8.7 24.9 13.7 14.8 5 30.5 5 25.3 0 37.4-11.9 12.1-12 12.1-36.5v-11.4q-9.3 11.1-22.7 16.7-13.5 5.6-29.2 5.6-20.7 0-37.4-8.9-16.7-8.8-26.2-24.7-9.5-15.9-9.5-36.3 0-20.5 9.5-36.4 9.5-15.9 26.2-24.6 16.7-8.7 37.4-8.7 16.3 0 30.3 6 13.9 6 22.9 17.7v-22.3zm-75.4 115.6q14.1 0 25.4-6 11.3-6 17.6-16.8 6.4-10.7 6.4-24.3 0-21-13.8-34-13.9-12.9-35.6-12.9-21.9 0-35.8 12.9-13.8 13-13.8 34 0 13.6 6.4 24.3 6.4 10.8 17.6 16.8 11.3 6 25.6 6z"/></svg>