<svg height="752" viewBox="0 0 752 752" width="752" xmlns="http://www.w3.org/2000/svg"><g fill="none"><circle cx="376" cy="376" fill="#fff" r="376"/><g fill="#1c4d65" transform="translate(159 90)"><g transform="matrix(-1 0 0 1 194.814 135.109)"><path d="m15.829687 7.50210704c8.6369068-7.75331317 18.9210176-9.03794929 30.8523326-3.85390837 7.0713919 3.07245138 13.9384208 7.91256863 19.2582589 16.41839333 12.422499 19.8621834 11.515756 45.5175223-2.7202291 76.9660167-1.4532355-18.2503892-7.4663839-36.7332764-18.0394451-55.4486615-10.5730613-18.7153851-20.3567004-30.0759985-29.3509173-34.08184016z"/><path d="m9.08929638 15.5877579c9.54928792 4.7247262 18.43396532 14.3946817 26.65403212 29.0098665 8.2200669 14.6151848 14.3022664 29.3825029 18.2465985 44.3019542-6.0170022-6.3935936-12.0992017-11.4933551-18.2465985-15.2992846-9.2210951-5.7088941-15.1732621-8.6454968-21.1461701-12.7366094-8.37072257-5.7334833-16.32017075-14.5484141-13.38027717-29.9190674 1.06837071-5.5857653 3.6925091-10.7047184 7.87241515-15.3568593z"/></g><g transform="matrix(-1 0 0 1 155.374 27.022)"><path d="m15.829687 7.50210704c8.6369068-7.75331317 18.9210176-9.03794929 30.8523326-3.85390837 7.0713919 3.07245138 13.9384208 7.91256863 19.2582589 16.41839333 12.422499 19.8621834 11.515756 45.5175223-2.7202291 76.9660167-1.4532355-18.2503892-7.4663839-36.7332764-18.0394451-55.4486615-10.5730613-18.7153851-20.3567004-30.0759985-29.3509173-34.08184016z"/><path d="m9.08929638 15.5877579c9.54928792 4.7247262 18.43396532 14.3946817 26.65403212 29.0098665 8.2200669 14.6151848 14.3022664 29.3825029 18.2465985 44.3019542-6.0170022-6.3935936-12.0992017-11.4933551-18.2465985-15.2992846-9.2210951-5.7088941-15.1732621-8.6454968-21.1461701-12.7366094-8.37072257-5.7334833-16.32017075-14.5484141-13.38027717-29.9190674 1.06837071-5.5857653 3.6925091-10.7047184 7.87241515-15.3568593z"/></g><g transform="matrix(-1 0 0 1 260.139 0)"><path d="m15.829687 7.50210704c8.6369068-7.75331317 18.9210176-9.03794929 30.8523326-3.85390837 7.0713919 3.07245138 13.9384208 7.91256863 19.2582589 16.41839333 12.422499 19.8621834 11.515756 45.5175223-2.7202291 76.9660167-1.4532355-18.2503892-7.4663839-36.7332764-18.0394451-55.4486615-10.5730613-18.7153851-20.3567004-30.0759985-29.3509173-34.08184016z"/><path d="m9.08929638 15.5877579c9.54928792 4.7247262 18.43396532 14.3946817 26.65403212 29.0098665 8.2200669 14.6151848 14.3022664 29.3825029 18.2465985 44.3019542-6.0170022-6.3935936-12.0992017-11.4933551-18.2465985-15.2992846-9.2210951-5.7088941-15.1732621-8.6454968-21.1461701-12.7366094-8.37072257-5.7334833-16.32017075-14.5484141-13.38027717-29.9190674 1.06837071-5.5857653 3.6925091-10.7047184 7.87241515-15.3568593z"/></g><g transform="translate(293.417 44.217)"><path d="m15.829687 7.50210704c8.6369068-7.75331317 18.9210176-9.03794929 30.8523326-3.85390837 7.0713919 3.07245138 13.9384208 7.91256863 19.2582589 16.41839333 12.422499 19.8621834 11.515756 45.5175223-2.7202291 76.9660167-1.4532355-18.2503892-7.4663839-36.7332764-18.0394451-55.4486615-10.5730613-18.7153851-20.3567004-30.0759985-29.3509173-34.08184016z"/><path d="m9.08929638 15.5877579c9.54928792 4.7247262 18.43396532 14.3946817 26.65403212 29.0098665 8.2200669 14.6151848 14.3022664 29.3825029 18.2465985 44.3019542-6.0170022-6.3935936-12.0992017-11.4933551-18.2465985-15.2992846-9.2210951-5.7088941-15.1732621-8.6454968-21.1461701-12.7366094-8.37072257-5.7334833-16.32017075-14.5484141-13.38027717-29.9190674 1.06837071-5.5857653 3.6925091-10.7047184 7.87241515-15.3568593z"/></g><g transform="translate(231.79 119.141)"><path d="m15.829687 7.50210704c8.6369068-7.75331317 18.9210176-9.03794929 30.8523326-3.85390837 7.0713919 3.07245138 13.9384208 7.91256863 19.2582589 16.41839333 12.422499 19.8621834 11.515756 45.5175223-2.7202291 76.9660167-1.4532355-18.2503892-7.4663839-36.7332764-18.0394451-55.4486615-10.5730613-18.7153851-20.3567004-30.0759985-29.3509173-34.08184016z"/><path d="m9.08929638 15.5877579c9.54928792 4.7247262 18.43396532 14.3946817 26.65403212 29.0098665 8.2200669 14.6151848 14.3022664 29.3825029 18.2465985 44.3019542-6.0170022-6.3935936-12.0992017-11.4933551-18.2465985-15.2992846-9.2210951-5.7088941-15.1732621-8.6454968-21.1461701-12.7366094-8.37072257-5.7334833-16.32017075-14.5484141-13.38027717-29.9190674 1.06837071-5.5857653 3.6925091-10.7047184 7.87241515-15.3568593z"/></g><g transform="translate(289.72 240.74)"><path d="m15.829687 7.50210704c8.6369068-7.75331317 18.9210176-9.03794929 30.8523326-3.85390837 7.0713919 3.07245138 13.9384208 7.91256863 19.2582589 16.41839333 12.422499 19.8621834 11.515756 45.5175223-2.7202291 76.9660167-1.4532355-18.2503892-7.4663839-36.7332764-18.0394451-55.4486615-10.5730613-18.7153851-20.3567004-30.0759985-29.3509173-34.08184016z"/><path d="m9.08929638 15.5877579c9.54928792 4.7247262 18.43396532 14.3946817 26.65403212 29.0098665 8.2200669 14.6151848 14.3022664 29.3825029 18.2465985 44.3019542-6.0170022-6.3935936-12.0992017-11.4933551-18.2465985-15.2992846-9.2210951-5.7088941-15.1732621-8.6454968-21.1461701-12.7366094-8.37072257-5.7334833-16.32017075-14.5484141-13.38027717-29.9190674 1.06837071-5.5857653 3.6925091-10.7047184 7.87241515-15.3568593z"/></g><g transform="translate(358.74 160.902)"><path d="m15.829687 7.50210704c8.6369068-7.75331317 18.9210176-9.03794929 30.8523326-3.85390837 7.0713919 3.07245138 13.9384208 7.91256863 19.2582589 16.41839333 12.422499 19.8621834 11.515756 45.5175223-2.7202291 76.9660167-1.4532355-18.2503892-7.4663839-36.7332764-18.0394451-55.4486615-10.5730613-18.7153851-20.3567004-30.0759985-29.3509173-34.08184016z"/><path d="m9.08929638 15.5877579c9.54928792 4.7247262 18.43396532 14.3946817 26.65403212 29.0098665 8.2200669 14.6151848 14.3022664 29.3825029 18.2465985 44.3019542-6.0170022-6.3935936-12.0992017-11.4933551-18.2465985-15.2992846-9.2210951-5.7088941-15.1732621-8.6454968-21.1461701-12.7366094-8.37072257-5.7334833-16.32017075-14.5484141-13.38027717-29.9190674 1.06837071-5.5857653 3.6925091-10.7047184 7.87241515-15.3568593z"/></g><g transform="matrix(-1 0 0 1 75.26 131.424)"><path d="m15.829687 7.50210704c8.6369068-7.75331317 18.9210176-9.03794929 30.8523326-3.85390837 7.0713919 3.07245138 13.9384208 7.91256863 19.2582589 16.41839333 12.422499 19.8621834 11.515756 45.5175223-2.7202291 76.9660167-1.4532355-18.2503892-7.4663839-36.7332764-18.0394451-55.4486615-10.5730613-18.7153851-20.3567004-30.0759985-29.3509173-34.08184016z"/><path d="m9.08929638 15.5877579c9.54928792 4.7247262 18.43396532 14.3946817 26.65403212 29.0098665 8.2200669 14.6151848 14.3022664 29.3825029 18.2465985 44.3019542-6.0170022-6.3935936-12.0992017-11.4933551-18.2465985-15.2992846-9.2210951-5.7088941-15.1732621-8.6454968-21.1461701-12.7366094-8.37072257-5.7334833-16.32017075-14.5484141-13.38027717-29.9190674 1.06837071-5.5857653 3.6925091-10.7047184 7.87241515-15.3568593z"/></g><path d="m65 326.976648c0-43.99719 46.227061-54.246742 71.534896-63.473259 13.660206-4.980124 46.109528-12.481253 97.347966-22.503389l5.547247.570036c-39.727378 12.120305-65.203624 21.4074-76.42874 27.861286-27.045937 15.550073-30.665327 32.745845-27.119876 42.587322 8.629051 23.952554 45.031381 36.358887 86.327555 47.316301 43.145257 12.047289 114.02675 29.852438 139.913904 66.5278 25.887154 36.675361 25.887154 81.568408-14.79266 111.324729-6.265152 4.582811-28.901046 17.829906-58.554276 24.184114-72.854009 15.611438-139.830259 6.533639-161.523574 0-20.168036-5.29809-49.8654502-17.198743-43.1082149-24.184114 36.3123189-37.538285 98.5806879-66.284129 65.2972039-124.620898-19.416992-34.032632-84.441431-41.592739-84.441431-85.589928z"/></g></g></svg>