<svg class="svg-icon" style="width: 1em; height: 1em;vertical-align: middle;fill: currentColor;overflow: hidden;" viewBox="0 0 1024 1024" version="1.1" xmlns="http://www.w3.org/2000/svg"><path d="M0 0h1024v1024H0z" fill="#FFFFFF" fill-opacity="0" /><path d="M512 926.5c-20.8 0-37.7-16.9-37.7-37.7V135.1c0-20.8 16.9-37.7 37.7-37.7 20.8 0 37.7 16.9 37.7 37.7v753.7c0 20.9-16.9 37.7-37.7 37.7z" fill="#DDDDDD" /><path d="M888.9 549.7H135.1c-20.8 0-37.7-16.9-37.7-37.7 0-20.8 16.9-37.7 37.7-37.7h753.7c20.8 0 37.7 16.9 37.7 37.7 0 20.8-16.8 37.7-37.6 37.7z" fill="#DDDDDD" /></svg>